<?xml version="1.0" standalone="no"?>
<!DOCTYPE svg PUBLIC "-//W3C//DTD SVG 20010904//EN"
 "http://www.w3.org/TR/2001/REC-SVG-20010904/DTD/svg10.dtd">
<svg version="1.0" xmlns="http://www.w3.org/2000/svg"
 width="328.000000pt" height="328.000000pt" viewBox="0 0 328.000000 328.000000"
 preserveAspectRatio="xMidYMid meet">
<metadata>
Created by potrace 1.14, written by Peter Selinger 2001-2017
</metadata>
<g transform="translate(0.000000,328.000000) scale(0.100000,-0.100000)"
fill="#000000" stroke="none">
<path d="M310 1639 l0 -1639 340 0 340 0 0 1357 c0 746 2 1358 4 1360 2 2 246
4 543 4 296 0 613 -1 706 -1 l167 0 0 -400 0 -400 -282 0 c-156 0 -446 0 -645
0 l-363 0 0 -960 0 -960 925 0 925 0 0 280 0 280 -645 0 -645 0 0 400 0 400
645 0 645 0 0 959 0 960 -1330 0 -1330 0 0 -1640z m338 836 c-3 -3 -9 2 -12
12 -6 14 -5 15 5 6 7 -7 10 -15 7 -18z m286 -353 c3 -5 -1 -9 -9 -9 -8 0 -12
4 -9 9 3 4 7 8 9 8 2 0 6 -4 9 -8z m-329 -161 c3 -5 2 -12 -3 -15 -5 -3 -9 1
-9 9 0 17 3 19 12 6z m120 -440 c3 -5 2 -12 -3 -15 -5 -3 -9 1 -9 9 0 17 3 19
12 6z"/>
</g>
</svg>
